<svg width="18.000000" height="20.000000" viewBox="0 0 18 20" fill="none" xmlns="http://www.w3.org/2000/svg" xmlns:xlink="http://www.w3.org/1999/xlink">
	<desc>
			Created with Pixso.
	</desc>
	<defs/>
	<path id="Icon" d="M15 2L16 2C17.1 2 18 2.89999 18 4L18 18C18 19.1 17.1 20 16 20L2 20C0.890015 20 0 19.1 0 18L0.0100098 4C0.0100098 2.89999 0.890015 2 2 2L3 2L3 1C3 0.450012 3.45001 0 4 0C4.54999 0 5 0.450012 5 1L5 2L13 2L13 1C13 0.450012 13.45 0 14 0C14.55 0 15 0.450012 15 1L15 2ZM16 17C16 17.55 15.55 18 15 18L3 18C2.45001 18 2 17.55 2 17L2 7L16 7L16 17ZM6 11L6 9L4 9L4 11L6 11ZM8 9L10 9L10 11L8 11L8 9ZM14 11L14 9L12 9L12 11L14 11Z" clip-rule="evenodd" fill="#3361FF" fill-opacity="1.000000" fill-rule="evenodd"/>
</svg>
