<svg width="13.548401" height="13.549042" viewBox="0 0 13.5484 13.549" fill="none" xmlns="http://www.w3.org/2000/svg" xmlns:xlink="http://www.w3.org/1999/xlink">
	<desc>
			Created with Pixso.
	</desc>
	<defs/>
	<path id="Vector" d="M6.77 1.22C8.58 1.22 8.79 1.22 9.51 1.26C9.94 1.26 10.36 1.34 10.76 1.49C11.06 1.6 11.32 1.77 11.54 2C11.77 2.22 11.94 2.48 12.05 2.77C12.2 3.18 12.28 3.6 12.28 4.03C12.32 4.75 12.32 4.96 12.32 6.77C12.32 8.58 12.32 8.79 12.28 9.51C12.28 9.94 12.2 10.36 12.05 10.77C11.94 11.06 11.77 11.32 11.54 11.54C11.32 11.77 11.06 11.94 10.76 12.05C10.36 12.2 9.94 12.28 9.51 12.28C8.79 12.32 8.58 12.32 6.77 12.32C4.96 12.32 4.75 12.32 4.03 12.28C3.6 12.28 3.18 12.2 2.77 12.05C2.48 11.94 2.22 11.77 1.99 11.54C1.77 11.32 1.6 11.06 1.49 10.77C1.34 10.36 1.26 9.94 1.25 9.51C1.22 8.79 1.22 8.58 1.22 6.77C1.22 4.96 1.22 4.75 1.25 4.03C1.26 3.6 1.34 3.18 1.49 2.77C1.6 2.48 1.77 2.22 1.99 2C2.22 1.77 2.48 1.6 2.77 1.49C3.18 1.34 3.6 1.26 4.03 1.26C4.75 1.22 4.96 1.22 6.77 1.22ZM6.77 0C4.93 0 4.7 0 3.98 0.04C3.41 0.05 2.86 0.15 2.33 0.35C1.88 0.52 1.47 0.79 1.13 1.13C0.79 1.47 0.52 1.88 0.35 2.33C0.15 2.86 0.05 3.41 0.03 3.98C0 4.7 0 4.93 0 6.77C0 8.61 0 8.84 0.04 9.56C0.05 10.12 0.15 10.68 0.35 11.21C0.52 11.66 0.79 12.07 1.13 12.41C1.47 12.75 1.88 13.02 2.33 13.19C2.86 13.39 3.41 13.49 3.98 13.5C4.7 13.54 4.93 13.54 6.77 13.54C8.61 13.54 8.84 13.54 9.56 13.5C10.13 13.49 10.68 13.39 11.21 13.19C11.66 13.01 12.07 12.75 12.41 12.41C12.75 12.07 13.01 11.66 13.19 11.21C13.39 10.68 13.49 10.12 13.5 9.56C13.54 8.84 13.54 8.61 13.54 6.77C13.54 4.93 13.54 4.7 13.5 3.98C13.49 3.41 13.39 2.86 13.19 2.33C13.02 1.88 12.75 1.47 12.41 1.13C12.07 0.79 11.66 0.52 11.21 0.35C10.68 0.15 10.12 0.05 9.56 0.04C8.84 0 8.61 0 6.77 0Z" fill="#000000" fill-opacity="1.000000" fill-rule="nonzero"/>
	<path id="Vector" d="M6.77 3.29C6.08 3.29 5.41 3.5 4.84 3.88C4.27 4.26 3.82 4.8 3.56 5.44C3.29 6.07 3.22 6.77 3.36 7.45C3.49 8.12 3.82 8.74 4.31 9.23C4.8 9.72 5.42 10.05 6.09 10.18C6.77 10.32 7.47 10.25 8.1 9.98C8.74 9.72 9.28 9.28 9.66 8.7C10.05 8.13 10.25 7.46 10.25 6.77C10.25 5.85 9.88 4.96 9.23 4.31C8.58 3.66 7.69 3.29 6.77 3.29ZM6.77 9.03C6.32 9.03 5.89 8.9 5.52 8.65C5.14 8.4 4.86 8.05 4.68 7.63C4.51 7.22 4.47 6.77 4.56 6.33C4.64 5.89 4.86 5.49 5.17 5.17C5.49 4.86 5.89 4.64 6.33 4.56C6.77 4.47 7.22 4.51 7.63 4.68C8.05 4.86 8.4 5.14 8.65 5.52C8.9 5.89 9.03 6.32 9.03 6.77C9.03 7.37 8.79 7.94 8.37 8.37C7.94 8.79 7.37 9.03 6.77 9.03Z" fill="#000000" fill-opacity="1.000000" fill-rule="nonzero"/>
	<path id="Vector" d="M11.2 3.15C11.2 3.6 10.84 3.97 10.39 3.97C9.94 3.97 9.57 3.6 9.57 3.15C9.57 2.7 9.94 2.34 10.39 2.34C10.84 2.34 11.2 2.7 11.2 3.15Z" fill="#000000" fill-opacity="1.000000" fill-rule="evenodd"/>
</svg>
