<svg width="20.000000" height="20.000000" viewBox="0 0 20 20" fill="none" xmlns="http://www.w3.org/2000/svg" xmlns:xlink="http://www.w3.org/1999/xlink">
	<desc>
			Created with Pixso.
	</desc>
	<defs/>
	<path id="Icon" d="M9.98999 0C4.46997 0 0 4.48001 0 10C0 15.52 4.46997 20 9.98999 20C15.52 20 20 15.52 20 10C20 4.48001 15.52 0 9.98999 0ZM10 18C5.58002 18 2 14.42 2 10C2 5.57999 5.58002 2 10 2C14.42 2 18 5.57999 18 10C18 14.42 14.42 18 10 18ZM9.71997 5L9.78003 5C10.18 5 10.5 5.32001 10.5 5.72L10.5 10.26L14.37 12.56C14.72 12.76 14.83 13.21 14.62 13.55C14.42 13.89 13.98 13.99 13.64 13.79L9.48999 11.3C9.17999 11.12 9 10.79 9 10.44L9 5.72C9 5.32001 9.32001 5 9.71997 5Z" clip-rule="evenodd" fill="#C3CAD9" fill-opacity="1.000000" fill-rule="evenodd"/>
</svg>
