<svg width="30.000000" height="30.000000" viewBox="0 0 30 30" fill="none" xmlns="http://www.w3.org/2000/svg" xmlns:xlink="http://www.w3.org/1999/xlink">
	<desc>
			Created with Pixso.
	</desc>
	<defs/>
	<path id="Icon" d="M19 6L19 7L11 7L11 6C11 5.45001 10.55 5 10 5C9.44995 5 9 5.45001 9 6L9 7L8 7C6.89001 7 6.01001 7.90002 6.01001 9L6 23C6 24.1 6.89001 25 8 25L22 25C23.1 25 24 24.1 24 23L24 9C24 7.90002 23.1 7 22 7L21 7L21 6C21 5.45001 20.55 5 20 5C19.45 5 19 5.45001 19 6ZM8 22C8 22.55 8.44995 23 9 23L21 23C21.55 23 22 22.55 22 22L22 12L8 12L8 22ZM19 16L16 16C15.45 16 15 16.45 15 17L15 20C15 20.55 15.45 21 16 21L19 21C19.55 21 20 20.55 20 20L20 17C20 16.45 19.55 16 19 16Z" clip-rule="evenodd" fill="#C3CAD9" fill-opacity="1.000000" fill-rule="evenodd"/>
</svg>
