<svg width="30.000000" height="30.000000" viewBox="0 0 30 30" fill="none" xmlns="http://www.w3.org/2000/svg" xmlns:xlink="http://www.w3.org/1999/xlink">
	<desc>
			Created with Pixso.
	</desc>
	<defs/>
	<path id="Icon" d="M8 12C8 8.13 11.13 5 15 5C18.87 5 22 8.13 22 12C22 16.17 17.58 21.92 15.77 24.11C15.37 24.59 14.64 24.59 14.24 24.11C12.42 21.92 8 16.17 8 12ZM12.5 12C12.5 13.38 13.62 14.5 15 14.5C16.38 14.5 17.5 13.38 17.5 12C17.5 10.62 16.38 9.5 15 9.5C13.62 9.5 12.5 10.62 12.5 12Z" clip-rule="evenodd" fill="#C3CAD9" fill-opacity="1.000000" fill-rule="evenodd"/>
</svg>
