<svg width="12.959778" height="12.645172" viewBox="0 0 12.9598 12.6452" fill="none" xmlns="http://www.w3.org/2000/svg" xmlns:xlink="http://www.w3.org/1999/xlink">
	<desc>
			Created with Pixso.
	</desc>
	<defs/>
	<path id="Vector" d="M6.47 0C2.88 0 0 2.88 0 6.47C0 9.34 1.86 11.77 4.42 12.63C4.75 12.68 4.85 12.5 4.85 12.31C4.85 12.14 4.85 11.74 4.85 11.2C3.05 11.6 2.67 10.34 2.67 10.34C2.37 9.58 1.94 9.39 1.94 9.39C1.34 8.99 1.99 8.99 1.99 8.99C2.64 9.04 2.99 9.66 2.99 9.66C3.56 10.66 4.5 10.36 4.88 10.2C4.94 9.77 5.1 9.5 5.29 9.34C3.86 9.17 2.34 8.61 2.34 6.12C2.34 5.42 2.59 4.83 3.02 4.4C2.96 4.23 2.72 3.59 3.07 2.67C3.07 2.67 3.61 2.51 4.85 3.34C5.37 3.21 5.93 3.13 6.47 3.13C7.01 3.13 7.58 3.21 8.09 3.34C9.34 2.51 9.88 2.67 9.88 2.67C10.23 3.56 10.01 4.21 9.93 4.4C10.34 4.85 10.61 5.42 10.61 6.12C10.61 8.61 9.09 9.15 7.64 9.31C7.88 9.5 8.07 9.9 8.07 10.5C8.07 11.36 8.07 12.06 8.07 12.28C8.07 12.44 8.18 12.66 8.53 12.6C11.09 11.77 12.95 9.34 12.95 6.47C12.95 2.88 10.07 0 6.47 0Z" fill="#000000" fill-opacity="1.000000" fill-rule="evenodd"/>
</svg>
