<svg width="248.000000" height="49.000000" viewBox="0 0 248 49" fill="none" xmlns="http://www.w3.org/2000/svg" xmlns:xlink="http://www.w3.org/1999/xlink">
	<desc>
			Created with Pixso.
	</desc>
	<defs/>
	<path id="Vector" d="M21.98 17.82L20.74 19.71L16.31 26.45L5.99 10.71L0 10.71L0 40.96L6.46 40.96L6.46 22.3L14.42 34.47L18.16 34.47L24.09 25.47L25.32 23.57L21.98 17.82Z" fill="#1B1657" fill-opacity="1.000000" fill-rule="nonzero"/>
	<path id="Vector" d="M85.75 10.75C96.47 10.75 101.55 17.09 101.55 25.87C101.55 34.65 96.47 41 85.75 41L74.45 41L74.45 10.75L85.75 10.75ZM85.75 16.43L80.91 16.43L80.91 35.27L85.75 35.27C91.74 35.27 94.98 32.07 94.98 25.87C94.98 19.68 91.74 16.43 85.75 16.43Z" fill="#1B1657" fill-opacity="1.000000" fill-rule="nonzero"/>
	<path id="Vector" d="M116.24 10.75C119.69 10.75 123.14 11.58 125.65 13.01L125.65 18.84C123.22 17.09 119.95 16.21 116.71 16.25C113.55 16.29 111.99 17.16 111.99 18.95C111.99 23.98 127.87 22.12 127.87 32.43C127.87 38.95 122.63 41 116.57 41C112.53 41 108.83 40.05 105.85 38.37L105.85 32.43C109.15 34.62 112.79 35.49 116.13 35.49C119.47 35.49 121.54 34.8 121.54 32.72C121.54 27.29 105.67 29.33 105.67 19.02C105.63 13.37 110.53 10.75 116.24 10.75Z" fill="#1B1657" fill-opacity="1.000000" fill-rule="nonzero"/>
	<path id="Vector" d="M153.96 10.75L153.96 16.43L139.17 16.43L139.17 22.88L152.65 22.88L152.65 28.53L139.17 28.53L139.17 35.27L154.21 35.27L154.21 40.96L132.7 40.96L132.7 10.71L153.96 10.71L153.96 10.75Z" fill="#1B1657" fill-opacity="1.000000" fill-rule="nonzero"/>
	<path id="Vector" d="M159.44 40.96L159.44 10.71L165.51 10.71L179.54 30.46C179.47 29.22 179.39 27.69 179.39 26.31L179.39 10.71L185.86 10.71L185.86 40.96L179.79 40.96L165.77 21.21C165.84 22.44 165.91 23.98 165.91 25.36L165.91 40.96L159.44 40.96Z" fill="#1B1657" fill-opacity="1.000000" fill-rule="nonzero"/>
	<path id="Vector" d="M55.37 16.29C55.4 15.74 55.26 15.16 54.97 14.65L52.72 10.75L50.39 10.75L53.22 15.67C53.33 15.85 53.37 16.07 53.33 16.29L55.37 16.29Z" fill="#2C3144" fill-opacity="1.000000" fill-rule="nonzero"/>
	<path id="Vector" d="M70.16 27.22L63.04 39.61C62.57 40.45 61.66 41 60.68 41L46.43 41C45.45 41 44.54 40.48 44.07 39.61L39.82 32.25L38.66 30.24L36.95 27.26C36.48 26.42 36.48 25.36 36.95 24.52L44.07 12.13C44.54 11.29 45.45 10.75 46.43 10.75L50.43 10.75L53.27 15.67C53.37 15.85 53.41 16.07 53.37 16.29L48.07 16.29L42.55 25.87L45.05 30.21L46.07 31.99L48.07 35.46L59.08 35.46L64.6 25.87L59.08 16.29L55.37 16.29C55.41 15.74 55.26 15.16 54.97 14.65L52.72 10.75L60.68 10.75C61.66 10.75 62.57 11.26 63.04 12.13L70.16 24.52C70.67 25.32 70.67 26.38 70.16 27.22Z" fill="#1B1657" fill-opacity="1.000000" fill-rule="nonzero"/>
	<path id="Vector" d="M54.97 14.65L52.72 10.75L47.38 1.45C46.87 0.54 45.89 0 44.83 0L29.64 0C28.59 0 27.64 0.54 27.1 1.45L19.54 14.65C19.03 15.56 19.03 16.65 19.54 17.56L20.78 19.71L24.12 25.51L26.19 29.08L26.19 25.03L25.36 23.61L22.01 17.82L21.29 16.58C21.14 16.29 21.14 15.96 21.29 15.67L28.88 2.47C29.03 2.18 29.35 2.04 29.68 2.04L44.87 2.04C45.2 2.04 45.49 2.22 45.67 2.47L50.43 10.75L53.26 15.67C53.37 15.85 53.41 16.07 53.37 16.29C53.37 16.39 53.34 16.47 53.26 16.58L45.67 29.77C45.52 29.99 45.3 30.17 45.05 30.21L46.07 31.99C46.61 31.74 47.09 31.34 47.41 30.79L55.01 17.6C55.22 17.2 55.37 16.76 55.41 16.29C55.41 15.7 55.26 15.16 54.97 14.65ZM32.62 30.21L32.62 32.21L39.82 32.21L38.65 30.21L32.62 30.21Z" fill="#F17900" fill-opacity="1.000000" fill-rule="evenodd"/>
	<path id="Vector" d="M32.63 10.75L32.63 40.96L26.16 40.96L26.16 22.34L25.32 23.61L21.98 17.82L26.63 10.75L32.63 10.75Z" fill="#1B1657" fill-opacity="1.000000" fill-rule="nonzero"/>
	<path id="Calendar" d="M174.76 40.02C175.2 40.16 175.72 40.24 176.34 40.24Q177.26 40.24 177.98 40.02C178.46 39.88 178.85 39.6 179.16 39.18C179.48 38.74 179.7 38.07 179.82 37.18L180.02 35.74L178.48 35.74L178.22 37.66C178.15 38.14 178.04 38.5 177.88 38.74C177.72 38.96 177.52 39.12 177.28 39.2Q176.92 39.3 176.48 39.3Q176.04 39.3 175.7 39.2Q175.57 39.15 175.48 39.07Q175.32 38.94 175.24 38.74C175.14 38.5 175.13 38.14 175.2 37.66L176.18 30.62C176.26 30.14 176.37 29.78 176.52 29.56C176.68 29.32 176.88 29.16 177.12 29.1C177.36 29.02 177.62 28.98 177.92 28.98Q178.36 28.98 178.68 29.1C178.9 29.16 179.06 29.32 179.16 29.56C179.26 29.78 179.28 30.14 179.2 30.62L178.9 32.82L180.44 32.82L180.74 30.66C180.84 29.92 180.8 29.37 180.6 29Q180.49 28.79 180.33 28.64Q180.06 28.36 179.64 28.24C179.21 28.09 178.69 28.02 178.08 28.02Q177.18 28.02 176.44 28.22Q176.09 28.31 175.8 28.49Q175.49 28.69 175.24 29Q174.76 29.56 174.6 30.66L173.68 37.18Q173.48 38.5 173.78 39.16Q173.97 39.55 174.28 39.78Q174.49 39.93 174.76 40.02ZM184.32 30.1L180.5 40L182.1 40L182.96 37.96L185.48 37.96L185.7 40L187.38 40L186.38 30.1L184.32 30.1ZM190.23 30.1L188.81 40L193.37 40L193.51 38.93L190.45 38.93L191.73 30.1L190.23 30.1ZM196.07 30.1L194.65 40L199.73 40L199.87 38.93L196.37 38.93L196.89 35.46L199.73 35.46L199.87 34.25L197.03 34.25L197.49 31.16L201.01 31.16L201.15 30.1L196.07 30.1ZM202.75 30.1L201.33 40L202.69 40L203.69 33.46L205.95 40L207.29 40L208.71 30.1L207.35 30.1L206.31 36.98L204.07 30.1L202.75 30.1ZM211.05 30.1L209.63 40L213.05 40C213.89 40 214.55 39.84 215.05 39.54C215.55 39.22 215.86 38.66 215.97 37.86L216.79 32.02Q216.89 31.34 216.67 30.92C216.52 30.64 216.27 30.43 215.93 30.3C215.59 30.16 215.17 30.1 214.67 30.1L211.05 30.1ZM220.63 30.1L216.81 40L218.41 40L219.27 37.96L221.79 37.96L222.01 40L223.69 40L222.69 30.1L220.63 30.1ZM226.53 30.1L225.11 40L226.67 40L227.31 35.59L228.53 35.59C228.76 35.59 228.93 35.66 229.05 35.78C229.17 35.88 229.26 36.02 229.31 36.2C229.38 36.36 229.43 36.52 229.45 36.7L229.97 40L231.63 40L230.95 36.59Q230.83 35.9 230.57 35.58C230.41 35.36 230.11 35.24 229.67 35.22L229.67 35.2C230.35 35.17 230.91 34.99 231.33 34.66Q231.6 34.44 231.78 34.17Q232.03 33.8 232.09 33.32L232.31 31.76Q232.41 31.22 232.2 30.85Q232.09 30.66 231.89 30.52C231.52 30.24 231 30.1 230.33 30.1L226.53 30.1ZM228.95 34.54L227.43 34.54L227.97 30.94L229.77 30.94C230.07 30.94 230.32 31.02 230.53 31.18C230.76 31.32 230.85 31.6 230.79 32.02L230.61 33.3C230.55 33.76 230.37 34.09 230.07 34.28C229.78 34.45 229.41 34.54 228.95 34.54ZM212.97 39.18L211.31 39.18L212.49 30.98L214.13 30.98Q214.73 30.98 215.05 31.26C215.26 31.43 215.33 31.74 215.25 32.2L214.43 37.96C214.37 38.43 214.21 38.76 213.93 38.93Q213.53 39.18 212.97 39.18ZM185.52 37.16L183.08 37.16L185.12 31.46L185.52 37.16ZM221.83 37.16L219.39 37.16L221.43 31.46L221.83 37.16Z" fill="#F17900" fill-opacity="1.000000" fill-rule="evenodd"/>
</svg>
