<svg width="11.173950" height="9.032257" viewBox="0 0 11.174 9.03226" fill="none" xmlns="http://www.w3.org/2000/svg" xmlns:xlink="http://www.w3.org/1999/xlink">
	<desc>
			Created with Pixso.
	</desc>
	<defs/>
	<path id="Vector" d="M11.17 1.04C10.75 1.23 10.31 1.35 9.84 1.42C10.31 1.14 10.68 0.69 10.84 0.16C10.4 0.41 9.91 0.6 9.38 0.72C8.96 0.27 8.35 0 7.7 0C6.44 0 5.42 1.02 5.42 2.28C5.42 2.46 5.44 2.63 5.49 2.79C3.6 2.7 1.9 1.79 0.76 0.39C0.58 0.74 0.46 1.11 0.46 1.53C0.46 2.32 0.86 3.02 1.48 3.44C1.11 3.42 0.76 3.32 0.44 3.16L0.44 3.18C0.44 4.3 1.23 5.23 2.28 5.44C2.09 5.49 1.88 5.51 1.67 5.51C1.53 5.51 1.37 5.49 1.23 5.47C1.53 6.37 2.37 7.05 3.37 7.05C2.58 7.65 1.6 8.03 0.53 8.03C0.34 8.03 0.16 8.03 0 8C1.02 8.65 2.21 9.03 3.51 9.03C7.72 9.03 10.03 5.54 10.03 2.51C10.03 2.42 10.03 2.3 10.03 2.21C10.47 1.9 10.87 1.51 11.17 1.04Z" fill="#000000" fill-opacity="1.000000" fill-rule="nonzero"/>
</svg>
