<svg width="18.002441" height="18.002472" viewBox="0 0 18.0024 18.0025" fill="none" xmlns="http://www.w3.org/2000/svg" xmlns:xlink="http://www.w3.org/1999/xlink">
	<desc>
			Created with Pixso.
	</desc>
	<defs/>
	<path id="Icon" d="M17.71 2.63251C18.1 3.02246 18.1 3.65247 17.71 4.04248L15.88 5.8725L12.13 2.1225L13.96 0.29248C14.1469 0.105225 14.4005 0 14.665 0C14.9296 0 15.1832 0.105225 15.37 0.29248L17.71 2.63251ZM0 14.4625L0 17.5025C0 17.7825 0.219971 18.0025 0.5 18.0025L3.54004 18.0025C3.67004 18.0025 3.80005 17.9525 3.89001 17.8525L14.8101 6.9425L11.0601 3.1925L0.150024 14.1025C0.0500488 14.2025 0 14.3225 0 14.4625Z" clip-rule="evenodd" fill="#C3CAD9" fill-opacity="1.000000" fill-rule="evenodd"/>
</svg>
